<svg xmlns="http://www.w3.org/2000/svg" version="1.1" xmlns:xlink="http://www.w3.org/1999/xlink" width="1500" height="129" viewBox="0 0 1500 129"><svg xml:space="preserve" width="1500" height="129" data-version="2" data-id="lg_0ALh6XiNrtqOm0KxGl" viewBox="0 0 569 129" x="0" y="0"><rect width="100%" height="100%" fill="transparent"></rect><path fill="#1f09ff" d="m123.515 126.545-31.82-35.23.22 5.92v29.31h-8.29v-54.47h1.04l31.96 35.67-.29-6.22v-29.37h8.29v54.39Z"></path><rect width="41" height="54.47" x="-20.5" y="-27.23" fill="none" rx="0" ry="0" transform="translate(104.63 99.81)"></rect><path fill="#1f09ff" d="M151.705 72.075h.81l26.2 54.47h-9.55l-4.66-10.66h-24.94l-4.66 10.66h-9.25Zm.37 15.76-3.26 7.4-5.92 13.18h18.36l-5.85-13.1-3.18-7.48Z"></path><rect width="53.06" height="54.47" x="-26.53" y="-27.23" fill="none" rx="0" ry="0" transform="translate(152.69 99.81)"></rect><path fill="#1f09ff" d="M179.755 126.545v-54.39h13.83q6.66 0 10.55 1.33 3.88 1.33 5.77 3.4 1.89 2.07 2.48 4.37.59 2.29.59 4.29 0 2.15-.63 4.48-.63 2.33-2.11 4.29t-4.07 3.14q5.55 1.41 7.88 4.85 2.34 3.44 2.34 7.66 0 2.89-.67 5.85-.67 2.96-2.78 5.36-2.1 2.41-6.32 3.89-4.22 1.48-11.32 1.48Zm8.14-31.31h7.03q3.84 0 5.92-1.29 2.07-1.3 2.92-3.37.85-2.07.85-4.36 0-1.93-.85-3.52t-3.04-2.55q-2.18-.96-6.17-.96h-6.66Zm0 24.35h8.51q3.77 0 6.03-.89 2.25-.89 3.44-2.29 1.18-1.41 1.55-3.07.37-1.67.37-3.3 0-3.84-2.59-6.03-2.59-2.18-8.14-2.18h-9.17Z"></path><rect width="36.63" height="54.39" x="-18.32" y="-27.2" fill="none" rx="0" ry="0" transform="translate(198.57 99.85)"></rect><path fill="#1f09ff" d="M223.045 126.545v-54.39h8.28v54.39Z"></path><rect width="8.28" height="54.39" x="-4.14" y="-27.2" fill="none" rx="0" ry="0" transform="translate(227.69 99.85)"></rect><path fill="#1f09ff" d="m279.055 126.545-31.82-35.23.23 5.92v29.31h-8.29v-54.47h1.03l31.97 35.67-.29-6.22v-29.37h8.28v54.39Z"></path><rect width="40.99" height="54.47" x="-20.5" y="-27.23" fill="none" rx="0" ry="0" transform="translate(260.17 99.81)"></rect><path fill="#1f09ff" d="M303.335 126.545v-54.39h8.14v24.27l18.64-24.27h9.92l-18.72 23.9 21.38 30.49h-10.13l-16.65-24.35-4.44 5.48v18.87Z"></path><rect width="39.36" height="54.39" x="-19.68" y="-27.2" fill="none" rx="0" ry="0" transform="translate(323.51 99.85)"></rect><path fill="#1f09ff" d="M365.045 72.075h.82l26.19 54.47h-9.54l-4.67-10.66h-24.93l-4.67 10.66h-9.25Zm.37 15.76-3.25 7.4-5.92 13.18h18.35l-5.85-13.1-3.18-7.48Z"></path><rect width="53.06" height="54.47" x="-26.53" y="-27.23" fill="none" rx="0" ry="0" transform="translate(366.02 99.81)"></rect><path fill="#1f09ff" d="M399.305 126.545v-47.14h-13.91v-7.25h36.19v7.25h-14.06v47.14Z"></path><rect width="36.19" height="54.39" x="-18.09" y="-27.2" fill="none" rx="0" ry="0" transform="translate(403.99 99.85)"></rect><path fill="#1f09ff" d="m458.365 71.855 14.87 35.3 13.02-35h8.81l-21.16 54.39h-1.04l-14.8-35.23-14.73 35.15h-1.03l-21.17-54.31h8.81l13.02 35 14.95-35.3Z"></path><rect width="73.93" height="54.69" x="-36.97" y="-27.34" fill="none" rx="0" ry="0" transform="translate(458.6 99.7)"></rect><path fill="#1f09ff" d="M510.605 72.075h.81l26.2 54.47h-9.55l-4.66-10.66h-24.94l-4.66 10.66h-9.25Zm.37 15.76-3.26 7.4-5.92 13.18h18.36l-5.85-13.1-3.18-7.48Z"></path><rect width="53.06" height="54.47" x="-26.53" y="-27.23" fill="none" rx="0" ry="0" transform="translate(511.58 99.81)"></rect><path fill="#1f09ff" d="M538.655 126.545v-54.39h8.36v46.99h15.61v7.4Z"></path><rect width="23.97" height="54.39" x="-11.98" y="-27.2" fill="none" rx="0" ry="0" transform="translate(551.14 99.85)"></rect><path stroke="#1f09ff" stroke-width="5" d="M8.741 72.027H54.92m13.594-19.662V4.819M56.568 59.114 23.38 25.926M60.16 82.46l-33.188 33.188m86.967-91.676L79.88 58.03" vector-effect="non-scaling-stroke"></path></svg></svg>